<?xml version="1.0" encoding="UTF-8" standalone="no"?>
<svg
   xmlns:dc="http://purl.org/dc/elements/1.1/"
   xmlns:cc="http://creativecommons.org/ns#"
   xmlns:rdf="http://www.w3.org/1999/02/22-rdf-syntax-ns#"
   xmlns:svg="http://www.w3.org/2000/svg"
   xmlns="http://www.w3.org/2000/svg"
   viewBox="0 0 525.35999 159.96001"
   height="159.96001"
   width="525.35999"
   xml:space="preserve"
   id="svg2"
   version="1.1"><metadata
     id="metadata8"><rdf:RDF><cc:Work
         rdf:about=""><dc:format>image/svg+xml</dc:format><dc:type
           rdf:resource="http://purl.org/dc/dcmitype/StillImage" /></cc:Work></rdf:RDF></metadata><defs
     id="defs6"><clipPath
       id="clipPath20"
       clipPathUnits="userSpaceOnUse"><path
         id="path18"
         d="M 0,0 H 3940 V 1199.66 H 0 Z" /></clipPath></defs><g
     transform="matrix(1.3333333,0,0,-1.3333333,0,159.96)"
     id="g10"><g
       transform="scale(0.1)"
       id="g12"><g
         id="g14"><g
           clip-path="url(#clipPath20)"
           id="g16"><path
             id="path22"
             style="fill:#666;fill-opacity:1;fill-rule:nonzero;stroke:none"
             d="m 2503.73,1062.81 h -20.62 c -3.62,0 -4,0.41 -3.21,3.63 l 1.65,7.68 c 0.39,1.61 0.77,2.42 4.81,3.2 l 21.42,4.47 c 10.08,36.74 16.13,60.12 37.09,82.35 5.65,6.07 35.55,35.52 72.29,35.52 31.49,0 40.74,-18.57 40.74,-28.66 0,-10.48 -12.5,-16.54 -20.99,-16.54 -7.67,0 -9.24,0.81 -13.27,8.06 -5.25,9.28 -8.92,16.95 -24.59,16.95 -33.55,0 -44.06,-44.44 -56.21,-97.29 l 46.86,0.42 c 4,0 4,-0.42 3.22,-3.64 l -2.83,-13.29 c -0.39,-2.45 -1.6,-3.24 -4.42,-3.24 h -46.81 l 0.06,-12.26 c -16.55,-85.979 -22.21,-110.608 -36.32,-136.44 -22.28,-39.168 -50.08,-45.222 -64.24,-45.222 -16.53,0 -29.42,7.265 -29.42,16.965 0,8.894 11.28,17.793 18.12,17.793 5.7,0 9.69,-4.043 16.17,-10.93 2.41,-2.82 6.87,-4.024 10.08,-4.024 11.33,0 19.38,10.497 28.66,50.032 1.63,6.051 9.7,48.484 11.34,58.551 l 10.42,65.915" /><path
             id="path24"
             style="fill:#666;fill-opacity:1;fill-rule:nonzero;stroke:none"
             d="m 1339.47,1127.86 c 16.53,9.46 35.97,11.76 55.06,11.76 8.78,0 15.94,-0.45 24.96,-1.14 2.98,-0.26 8.05,-0.92 11.04,-0.92 1.63,0 2.29,0.45 3.93,1.16 0.7,0.45 2.32,0.45 2.53,0.45 4.16,0 4.16,-0.95 4.16,-1.85 0,-1.39 -2.28,-20.06 -2.53,-23.75 -0.21,-3.02 -1.17,-17.78 -1.63,-19.14 -0.44,-1.16 -1.34,-1.39 -4.83,-1.39 -4.39,0 -4.87,0 -5.53,3.92 -0.67,5.05 -1.84,13.14 -3.92,16.35 -6.44,10.86 -26.32,11.55 -34.82,11.55 -21.01,0 -32.34,-6.66 -39.03,-15.24 -6.41,-8.51 -12.21,-20.94 -12.21,-43.36 0,-46.13 24.19,-66.18 52.59,-66.18 6.48,0 29.06,0.22 39.48,23.97 2.99,6.92 3.2,7.63 4.82,7.63 0.48,0 8.07,-0.49 8.07,-3.71 0,0 -6.45,-31.368 -8.07,-32.966 -1.62,-1.613 -27.46,-7.602 -49.81,-7.602 -58.12,0 -82.79,36.208 -82.79,74.948 0,32.08 15.87,52.83 38.53,65.51" /><path
             id="path26"
             style="fill:#666;fill-opacity:1;fill-rule:nonzero;stroke:none"
             d="m 1559.03,1120.21 c -2.07,6.25 -4.38,6.25 -18.45,7.18 -3.46,0.23 -3.46,0.7 -3.46,5.07 0,4.39 0.69,4.63 3.91,4.63 5.58,0 19.62,-0.47 35.53,-0.47 11.76,0 26.07,0.47 33.01,0.47 h 4.38 c 2.53,0 2.74,-1.16 2.74,-3.22 0,-5.78 0,-6.25 -5.28,-6.69 -12.01,-0.72 -15.92,-3.01 -17.57,-14.55 -0.9,-7.14 -0.9,-33.9 -0.9,-44.06 0,-29.52 0.21,-50.28 1.42,-58.82 1.13,-6.47 2.76,-10.363 12.21,-10.844 h 7.16 c 2.31,0 2.54,-0.468 2.54,-3.902 0,-4.399 0,-5.07 -2.32,-5.07 -6.71,0 -27.92,0.449 -42.03,0.449 -12.64,0 -22.79,-0.449 -32.26,-0.449 -1.63,0 -2.54,0.671 -2.54,4.832 0,3.918 0.69,4.14 6.94,4.621 12.43,0.913 15.42,6.443 15.89,20.743 0.95,16.62 0.95,46.37 0.95,63.67 0,8.55 0,30.68 -1.87,36.41" /><path
             id="path28"
             style="fill:#666;fill-opacity:1;fill-rule:nonzero;stroke:none"
             d="m 1798.51,1083.12 c 0,-23.3 0,-49.15 0.23,-59.51 0.45,-22.84 0.9,-24.008 21.68,-24.477 3.42,-0.227 3.42,-2.051 3.42,-4.602 0,-3.222 -0.45,-4.843 -3.19,-4.843 -2.54,0 -6.7,0.246 -12.95,0.453 -6.42,0 -14.76,0.242 -26.29,0.242 -8.06,0 -15.26,-0.242 -21.7,-0.242 -6.44,-0.207 -12.22,-0.453 -17.08,-0.453 -1.81,0 -1.81,1.835 -1.81,5.078 0,2.316 0.22,4.14 2.32,4.367 15.43,1.417 20.5,1.847 21.91,16.397 0.69,9.01 0.91,50.51 0.91,61.36 0,8.3 -0.44,35.51 -0.68,45.22 -39.28,-0.73 -42.92,-1.63 -47.56,-18.47 -1.83,-6.48 -1.83,-7.17 -5.28,-7.17 -4.83,0 -6.71,0 -6.71,2.58 0,0.43 4.42,29.5 4.87,33.68 0.64,5.49 1.13,7.58 4.15,7.58 2.54,0 3.23,-1.14 6.2,-1.83 6.46,-1.63 45.46,-1.63 55.35,-1.63 5.58,0 70.88,0 76.6,2.53 1.43,0.5 3.5,0.93 4.39,0.93 1.65,0 2.54,-0.69 2.54,-2.09 0,-1.37 -4.38,-17.49 -4.83,-22.6 -0.22,-3.91 -2.31,-14.77 -3.22,-17.05 -0.71,-2.1 -1.88,-2.31 -5.79,-2.31 -3.21,0 -5.06,0 -5.06,3.45 -0.7,17.55 -0.7,18.71 -5.98,20.3 -6.27,2.1 -28.38,2.33 -36.44,2.1 v -38.99" /><path
             id="path30"
             style="fill:#666;fill-opacity:1;fill-rule:nonzero;stroke:none"
             d="m 2034.95,1107.09 c 5.49,9 7.12,12.23 7.12,14.79 0,4.58 -5.28,5.07 -9.67,5.3 -4.86,0.44 -5.3,0.44 -5.3,3.67 0,4.87 0.22,6 2.99,6 5.28,0 11.98,-0.43 23.52,-0.43 9.93,0 19.15,0.43 22.38,0.43 1.83,0 2.09,-1.37 2.09,-3.45 0,-4.36 0,-5.31 -2.55,-6.01 -7.38,-2.32 -11.09,-3.46 -43.34,-47.96 -3.28,-4.63 -15.5,-21.94 -16.41,-23.53 -0.46,-0.94 -0.46,-5.32 -0.46,-11.77 0,-7.38 0,-31.38 1.37,-37.16 1.84,-7.837 8.1,-8.286 18.47,-8.286 1.63,0 1.63,-1.153 1.63,-4.61 0,-3.469 -0.22,-4.14 -2.55,-4.14 -5.75,0 -20.11,0.449 -33.45,0.449 -8.8,0 -30.21,-0.449 -38.27,-0.449 -0.97,0 -1.2,1.375 -1.2,5.07 0,3.219 0.51,3.68 5.09,4.129 17.12,1.847 17.12,3.257 17.12,45.937 0,5.51 -0.53,6.65 -5.83,15.2 -11.77,18.91 -23.54,37.62 -36.88,55.62 -7.61,10.36 -8.57,10.57 -15.96,12.2 -1.32,0.25 -1.63,1.15 -1.63,4.37 0,3.47 0.74,4.39 1.9,4.39 3.9,0 14.76,-0.43 30,-0.43 12.44,0 27.19,0.43 30.19,0.43 3.04,0 4.17,-0.43 4.17,-3.69 0,-4.4 -0.22,-5.77 -4.62,-5.77 -2.99,0 -7.83,0 -7.83,-4.13 0,-3.47 3.65,-9.95 5.7,-13.64 4.42,-7.38 8.36,-13.58 26.33,-42.21 l 25.88,39.68" /><path
             id="path32"
             style="fill:#666;fill-opacity:1;fill-rule:nonzero;stroke:none"
             d="m 2266.03,1063.71 c 0,-40.58 23.75,-76.308 81.4,-76.308 68.93,0 86.74,49.808 86.74,78.198 0,41.05 -29.57,74.02 -80.74,74.02 -35.04,0 -87.4,-19.14 -87.4,-75.91 z m 35,5.78 c 0,8.1 1.41,32.99 16.38,46.6 7.38,6.7 18.28,10.62 29.49,10.62 30.04,0 52.19,-28.82 52.19,-69.42 0,-39.9 -21.69,-57.21 -45.9,-57.21 -27.42,0 -52.16,23.97 -52.16,69.41" /><path
             id="path34"
             style="fill:#666;fill-opacity:1;fill-rule:nonzero;stroke:none"
             d="m 97.0703,244.395 c -0.1719,-1.012 -0.3437,-1.344 -0.8476,-1.7 -0.3438,-0.175 -2.043,-1.015 -2.5508,-1.015 -0.5117,0 -4.2539,1.703 -5.1016,2.035 -6.6328,2.887 -17.0039,5.625 -28.0508,5.625 -19.8906,0 -41.4804,-11.914 -41.4804,-44.043 0,-31.445 20.914,-46.586 42.3281,-46.586 9.6914,0 21.4219,2.559 29.2422,6.641 2.3789,1.347 2.5508,1.347 2.7226,1.347 0.3399,0 2.211,-1.187 2.5469,-1.519 0.5117,-0.352 0.3438,-0.692 0.1719,-1.7 l -1.3633,-8.5 c -0.1641,-1.539 -0.5078,-1.871 -2.207,-2.378 -4.418,-1.543 -17.3399,-4.43 -33.1485,-4.43 C 10.707,148.172 0,183.711 0,202.246 c 0,23.969 16.6602,57.797 66.8125,57.797 16.8242,0 29.0664,-3.574 30.5977,-4.594 0.8515,-0.508 0.8515,-1.695 0.6796,-2.383 l -1.0195,-8.671" /><path
             id="path36"
             style="fill:#666;fill-opacity:1;fill-rule:nonzero;stroke:none"
             d="m 186.488,260.551 c -13.937,0 -26.515,-2.539 -38.929,-11.391 -16.321,-11.734 -23.633,-28.902 -23.633,-45.722 0,-27.208 19.89,-55.778 57.461,-55.778 36.722,0 60.863,25.328 60.863,57.813 0,30.757 -22.441,55.078 -55.762,55.078 z m -2.89,-11.211 c 24.14,0 39.609,-23.125 39.609,-46.938 0,-24.98 -16.145,-43.511 -38.59,-43.511 -23.969,0 -41.648,20.918 -41.648,47.086 0,15.976 8.16,43.363 40.629,43.363" /><path
             id="path38"
             style="fill:#666;fill-opacity:1;fill-rule:nonzero;stroke:none"
             d="m 402.387,150.219 h -17.168 l -1.867,85 -42.672,-83.297 -6.973,-1.024 -40.801,85 -1.359,-85.679 h -14.281 l 6.461,107.793 h 16.488 l 40.121,-83.301 42.5,83.301 h 16.324 l 3.227,-107.793" /><path
             id="path40"
             style="fill:#666;fill-opacity:1;fill-rule:nonzero;stroke:none"
             d="m 567.969,150.219 h -17.172 l -1.871,85 -42.672,-83.297 -6.969,-1.024 -40.801,85 -1.359,-85.679 h -14.277 l 6.461,107.793 h 16.488 l 40.121,-83.301 42.5,83.301 h 16.316 l 3.235,-107.793" /><path
             id="path42"
             style="fill:#666;fill-opacity:1;fill-rule:nonzero;stroke:none"
             d="m 626.781,258.012 v -57.817 c 0,-16.836 0,-24.136 4.082,-30.254 5.953,-8.511 21.422,-8.839 24.649,-8.839 8.504,0 20.914,2.527 26.859,11.378 4.254,6.141 4.594,16.84 4.594,30.786 v 54.746 h 13.937 l -0.507,-54.574 c -0.168,-21.598 -1.872,-33.497 -10.372,-42.168 -8.16,-8.161 -21.757,-13.098 -39.101,-13.098 -23.625,0 -31.621,8.508 -35.36,13.937 -5.269,7.481 -6.289,14.629 -6.289,37.579 v 58.324 h 17.508" /><path
             id="path44"
             style="fill:#666;fill-opacity:1;fill-rule:nonzero;stroke:none"
             d="m 839.625,151.059 -9.012,-2.719 -75.652,85.683 2.043,-83.804 h -13.942 l 0.34,107.793 h 12.75 l 71.914,-81.602 -2.211,81.602 h 13.942 l -0.172,-106.953" /><path
             id="path46"
             style="fill:#666;fill-opacity:1;fill-rule:nonzero;stroke:none"
             d="m 883.992,150.219 h 17.5117 V 258.012 H 883.992 Z" /><path
             id="path48"
             style="fill:#666;fill-opacity:1;fill-rule:nonzero;stroke:none"
             d="m 1032.91,258.012 v -11.41 h -44.371 v -96.383 h -17.508 v 96.383 h -44.027 v 11.41 h 105.906" /><path
             id="path50"
             style="fill:#666;fill-opacity:1;fill-rule:nonzero;stroke:none"
             d="m 1065.38,258.012 29.07,-49.145 29.92,49.145 h 18.02 l -42.33,-60.352 v -47.441 h -17.34 v 46.75 l -37.74,61.043 h 20.4" /><path
             id="path52"
             style="fill:#666;fill-opacity:1;fill-rule:nonzero;stroke:none"
             d="m 1236.57,202.246 c 13.6,-9.176 19.72,-14.117 29.92,-29.258 -3.4,-3.218 -11.22,-10.699 -24.31,-10.699 -14.45,0 -21.08,9.68 -21.08,19.223 0,13.41 11.9,19.039 15.47,20.734 z m 51.17,8.652 c -3.06,-11.21 -6.46,-18.867 -11.05,-25.839 -7.82,10.722 -14.28,17.187 -24.65,24.14 5.44,2.055 20.23,7.324 20.23,23.985 0,12.226 -9.35,21.757 -25.84,21.757 -17.68,0 -29.58,-11.386 -29.58,-25.664 0,-9.019 4.08,-15.484 11.39,-21.093 -8.67,-4.082 -24.14,-12.223 -24.14,-29.922 0,-17.16 13.77,-29.922 33.83,-29.922 18.53,0 30.26,11.39 34.85,15.82 8.33,-10.211 12.24,-14.449 27.2,-14.449 4.08,0 5.78,0.328 7.65,0.508 l 0.85,7.133 c -11.05,0.847 -15.64,4.937 -25.33,18.527 10.2,12.601 15.47,24.492 19.04,35.019 z m -43.69,3.75 c -3.57,2.032 -11.73,6.973 -11.73,17.344 0,7.988 4.59,13.418 12.92,13.418 8.67,0 12.41,-6.617 12.41,-13.418 0,-12.574 -10.2,-16.148 -13.6,-17.344" /><path
             id="path54"
             style="fill:#666;fill-opacity:1;fill-rule:nonzero;stroke:none"
             d="m 2716.34,260.551 c -13.94,0 -26.52,-2.539 -38.93,-11.391 -16.32,-11.734 -23.63,-28.902 -23.63,-45.722 0,-27.208 19.89,-55.778 57.46,-55.778 36.72,0 60.86,25.328 60.86,57.813 0,30.757 -22.44,55.078 -55.76,55.078 z m -2.89,-11.211 c 24.14,0 39.62,-23.125 39.62,-46.938 0,-24.98 -16.16,-43.511 -38.6,-43.511 -23.97,0 -41.65,20.918 -41.65,47.086 0,15.976 8.16,43.363 40.63,43.363" /><path
             id="path56"
             style="fill:#666;fill-opacity:1;fill-rule:nonzero;stroke:none"
             d="m 2827.01,191.531 c 4.42,-0.16 15.64,-0.511 23.8,0.348 27.71,2.891 35.53,21.25 35.53,34.512 0,7.988 -2.89,17.164 -9.69,23.457 -8.67,7.808 -21.25,8.828 -34.34,8.828 -2.21,0 -28.39,-0.664 -32.81,-0.664 V 150.219 h 17.51 z m 0,56.11 c 4.59,0.156 10.2,0.332 12.75,0.332 9.86,0 27.88,0 27.88,-22.446 0,-22.617 -18.53,-23.457 -29.75,-23.457 -5.44,0 -7.82,0.176 -10.88,0.508 v 45.063" /><path
             id="path58"
             style="fill:#666;fill-opacity:1;fill-rule:nonzero;stroke:none"
             d="m 2936.48,191.531 c 4.43,-0.16 15.65,-0.511 23.8,0.348 27.72,2.891 35.54,21.25 35.54,34.512 0,7.988 -2.89,17.164 -9.69,23.457 -8.67,7.808 -21.25,8.828 -34.34,8.828 -2.21,0 -28.39,-0.664 -32.82,-0.664 V 150.219 h 17.51 z m 0,56.11 c 4.59,0.156 10.21,0.332 12.76,0.332 9.86,0 27.88,0 27.88,-22.446 0,-22.617 -18.54,-23.457 -29.76,-23.457 -5.44,0 -7.81,0.176 -10.88,0.508 v 45.063" /><path
             id="path60"
             style="fill:#666;fill-opacity:1;fill-rule:nonzero;stroke:none"
             d="m 3083.19,260.551 c -13.93,0 -26.51,-2.539 -38.92,-11.391 -16.32,-11.734 -23.64,-28.902 -23.64,-45.722 0,-27.208 19.9,-55.778 57.47,-55.778 36.71,0 60.86,25.328 60.86,57.813 0,30.757 -22.45,55.078 -55.77,55.078 z m -2.89,-11.211 c 24.14,0 39.61,-23.125 39.61,-46.938 0,-24.98 -16.14,-43.511 -38.58,-43.511 -23.98,0 -41.65,20.918 -41.65,47.086 0,15.976 8.15,43.363 40.62,43.363" /><path
             id="path62"
             style="fill:#666;fill-opacity:1;fill-rule:nonzero;stroke:none"
             d="m 3193.87,195.961 c 10.53,-0.531 14.44,0 18.01,0.508 5.44,-10.039 17.68,-32.481 28.23,-40.649 5.44,-4.41 14.62,-6.968 20.91,-6.968 2.2,0 6.45,0.179 6.97,2.046 l 1.7,5.614 -0.51,0.679 c -8.51,0.84 -12.92,4.59 -14.96,6.618 -5.78,5.781 -15.3,17.851 -24.83,36.054 5.61,2.032 23.98,8.672 23.98,29.571 0,6.132 -1.88,14.961 -8.85,21.093 -7.99,7.129 -19.37,8.149 -34.33,8.149 -2.55,0 -5.28,-0.16 -7.32,-0.16 -3.74,0 -22.26,-0.504 -26.51,-0.504 V 150.219 h 17.51 z m 0,51.836 c 6.79,0.348 12.07,0.348 13.59,0.348 10.55,0 27.21,0 27.21,-20.235 0,-21.25 -18.2,-22.105 -29.76,-22.105 -4.59,0 -8.49,0.172 -11.04,0.347 v 41.645" /><path
             id="path64"
             style="fill:#666;fill-opacity:1;fill-rule:nonzero;stroke:none"
             d="m 3383.24,258.012 v -11.41 h -44.36 v -96.383 h -17.51 v 96.383 h -44.04 v 11.41 h 105.91" /><path
             id="path66"
             style="fill:#666;fill-opacity:1;fill-rule:nonzero;stroke:none"
             d="m 3424.55,258.012 v -57.817 c 0,-16.836 0,-24.136 4.08,-30.254 5.95,-8.511 21.42,-8.839 24.65,-8.839 8.5,0 20.91,2.527 26.87,11.378 4.24,6.141 4.59,16.84 4.59,30.786 v 54.746 h 13.93 l -0.51,-54.574 c -0.17,-21.598 -1.87,-33.497 -10.37,-42.168 -8.16,-8.161 -21.75,-13.098 -39.1,-13.098 -23.63,0 -31.62,8.508 -35.36,13.937 -5.27,7.481 -6.29,14.629 -6.29,37.579 v 58.324 h 17.51" /><path
             id="path68"
             style="fill:#666;fill-opacity:1;fill-rule:nonzero;stroke:none"
             d="m 3637.39,151.059 -9.01,-2.719 -75.65,85.683 2.05,-83.804 h -13.95 l 0.34,107.793 h 12.75 l 71.91,-81.602 -2.21,81.602 h 13.94 l -0.17,-106.953" /><path
             id="path70"
             style="fill:#666;fill-opacity:1;fill-rule:nonzero;stroke:none"
             d="m 3681.76,150.219 h 17.5078 V 258.012 H 3681.76 Z" /><path
             id="path72"
             style="fill:#666;fill-opacity:1;fill-rule:nonzero;stroke:none"
             d="m 3830.68,258.012 v -11.41 h -44.37 v -96.383 h -17.51 v 96.383 h -44.03 v 11.41 h 105.91" /><path
             id="path74"
             style="fill:#666;fill-opacity:1;fill-rule:nonzero;stroke:none"
             d="m 3863.14,258.012 29.08,-49.145 29.92,49.145 h 18.02 l -42.34,-60.352 v -47.441 h -17.33 v 46.75 l -37.75,61.043 h 20.4" /><path
             id="path76"
             style="fill:#666;fill-opacity:1;fill-rule:nonzero;stroke:none"
             d="m 930.113,831.586 c -6.23,18.687 -13.144,18.687 -55.351,21.465 -10.41,0.64 -10.41,2.066 -10.41,15.191 0,13.149 2.078,13.828 11.785,13.828 16.574,0 58.828,-1.367 106.582,-1.367 35.291,0 78.151,1.367 98.941,1.367 h 13.18 c 7.59,0 8.3,-3.418 8.3,-9.668 0,-17.285 0,-18.711 -15.96,-20.078 -35.97,-2.051 -47.74,-8.98 -52.59,-43.57 -2.75,-21.469 -2.75,-101.738 -2.75,-132.207 0,-88.574 0.68,-150.844 4.15,-176.449 3.45,-19.395 8.32,-31.153 36.66,-32.555 h 21.47 c 6.92,0 7.58,-1.352 7.58,-11.738 0,-13.149 0,-15.254 -6.86,-15.254 -20.11,0 -83.77,1.422 -125.988,1.422 -38.047,0 -68.497,-1.422 -96.844,-1.422 -4.844,0 -7.656,2.105 -7.656,14.547 0,11.781 2.078,12.445 20.761,13.847 37.41,2.793 46.387,19.36 47.754,62.309 2.774,49.801 2.774,139.098 2.774,190.973 0,25.609 0,92.074 -5.528,109.359" /><path
             id="path78"
             style="fill:#666;fill-opacity:1;fill-rule:nonzero;stroke:none"
             d="m 3177.31,831.586 c -6.19,18.687 -13.11,18.687 -55.33,21.465 -10.41,0.64 -10.41,2.066 -10.41,15.191 0,13.149 2.13,13.828 11.82,13.828 16.56,0 58.78,-1.367 106.55,-1.367 35.29,0 78.23,1.367 98.93,1.367 h 13.19 c 7.6,0 8.27,-3.418 8.27,-9.668 0,-17.285 0,-18.711 -15.88,-20.078 -36,-2.051 -47.76,-8.98 -52.6,-43.57 -2.77,-21.469 -2.77,-101.738 -2.77,-132.207 0,-88.574 0.71,-150.844 4.12,-176.449 3.49,-19.395 8.35,-31.153 36.75,-32.555 h 21.42 c 6.87,0 7.59,-1.352 7.59,-11.738 0,-13.149 0,-15.254 -6.9,-15.254 -20.11,0 -83.73,1.422 -125.99,1.422 -38.01,0 -68.5,-1.422 -96.87,-1.422 -4.83,0 -7.63,2.105 -7.63,14.547 0,11.781 2.13,12.445 20.82,13.847 37.36,2.793 46.33,19.36 47.69,62.309 2.83,49.801 2.83,139.098 2.83,190.973 0,25.609 0,92.074 -5.6,109.359" /><path
             id="path80"
             style="fill:#666;fill-opacity:1;fill-rule:nonzero;stroke:none"
             d="m 3608.5,819.141 c -2.84,29.043 -17.38,33.91 -43.67,34.55 -11.01,0 -11.01,0 -11.01,13.868 0,13.832 1.35,13.832 13.85,13.832 12.45,0 45.7,-0.688 78.82,-0.688 33.23,-0.683 66.5,-1.363 77.58,-1.363 34.58,0 69.18,0.68 101.02,1.363 32.49,0 63.65,0.688 90.65,0.688 8.29,0 8.29,-5.508 8.29,-12.446 0,-8.3 -4.16,-26.953 -6.21,-58.125 -0.71,-11.07 -2.78,-27.675 -2.78,-36.695 0,-6.898 -3.45,-8.281 -15.22,-8.281 -11.08,0 -13.85,2.066 -14.53,8.281 -7.59,58.848 -9.01,70.602 -112.12,70.602 -13.14,0 -53.97,0 -60.18,-6.93 -4.16,-4.121 -4.87,-18.656 -4.87,-29.043 -0.68,-38.75 -0.68,-83.051 0,-121.801 127.99,-0.699 135.66,4.848 139.79,37.363 2.74,18.672 2.74,18.672 17.33,18.672 6.21,0 13.13,-2.066 13.13,-6.914 0,-10.371 -1.39,-51.894 -1.39,-60.215 0,-11.757 1.39,-65.039 1.39,-75.386 0,-9.028 -3.46,-10.395 -12.44,-10.395 -8.35,0 -13.85,0 -14.56,8.969 -3.46,25.625 -5.59,38.789 -26.28,45 -23.56,6.914 -54.01,6.914 -118.32,6.914 0,-24.238 0,-112.133 2.06,-134.262 1.38,-24.219 2.79,-36.679 55.33,-36.679 110.01,0 115.59,19.375 141.17,87.207 2.08,5.507 11.11,5.507 18.7,2.753 6.93,-2.07 12.44,-6.226 12.44,-10.347 0,-9.707 -10.35,-56.098 -25.52,-109.375 -1.42,-5.531 -5.62,-10.356 -13.19,-10.356 -11.11,0 -50.56,0.649 -94.12,1.368 -43.61,0 -92.75,0.703 -123.92,0.703 -28.35,0 -52.58,-0.703 -72.64,-0.703 -20.05,-0.719 -36,-1.368 -48.43,-1.368 -8.32,0 -8.32,1.368 -8.32,13.149 0,13.14 1.4,13.828 18.02,15.215 35.29,2.769 38.02,20.781 40.15,45.679 2.74,33.188 2.74,119.707 2.74,160.547 0,96.192 -0.7,126.621 -2.74,144.649" /><path
             id="path82"
             style="fill:#666;fill-opacity:1;fill-rule:nonzero;stroke:none"
             d="m 2974.5,465.41 c -13.08,0 -40.15,0 -80.23,43.598 -26.31,28.379 -68.56,95.484 -93.4,139.82 18.66,6.895 89.91,32.5 89.91,120.41 0,65.024 -48.43,116.235 -144.63,116.235 -25.61,0 -86.49,-5.532 -158.45,-4.844 l -68.51,0.68 c -7.62,0 -13.87,0 -13.87,-13.141 0,-12.445 0,-13.828 9.03,-14.555 29.7,-2.754 38.73,-3.433 44.96,-21.425 5.56,-17.301 5.56,-85.118 5.56,-110.758 0,-54.629 0,-137.012 -2.83,-191 -0.67,-29.024 -2.03,-57.379 -40.84,-62.262 -15.88,-1.391 -17.23,-4.145 -17.23,-13.828 0,-6.914 0,-14.516 5.51,-14.516 11.72,0 55.39,0.649 99.64,0.649 23.57,0 98.98,-0.649 107.96,-0.649 6.96,0 6.96,4.809 6.96,12.422 0,11.059 -1.42,15.234 -10.4,15.234 -50.54,0 -54.66,8.325 -54.66,81.661 0,24.921 0,42.914 -0.74,80.957 l 0.74,33.925 0.68,166.094 c 0.63,17.309 1.38,22.133 26.96,22.133 33.24,0 98.95,0 98.95,-99.652 0,-68.575 -29.53,-85.157 -64.2,-89.215 -3.09,0.172 -6.93,1.289 -9.19,3.867 -6.48,6.875 -10.47,10.895 -16.14,10.895 -6.87,0 -18.14,-8.868 -18.14,-17.77 0,-9.707 12.88,-16.977 29.45,-16.977 0,0 53.3,-104.628 84.5,-144.785 12.44,-16.582 51.91,-68.496 128,-68.496 24.2,0 43.6,5.551 54.02,8.969 8.25,2.793 8.25,4.156 8.25,15.254 0,11.07 -1.33,11.07 -7.62,11.07" /><path
             id="path84"
             style="fill:#666;fill-opacity:1;fill-rule:nonzero;stroke:none"
             d="m 215.777,685.312 c 0.547,1.528 1.114,2.93 1.68,4.493 0,0 93.906,234.203 136.465,332.485 16.394,-46.392 93.875,-249.571 109.16,-290.474 0,0 6.902,-19.312 16.453,-46.504 z M 729.438,473.32 c -21.766,3.34 -34.872,6.645 -50.196,29.848 -36.023,55.215 -225.965,553.342 -241.258,616.342 -6.562,25.35 -6.562,28.67 -14.199,28.67 -8.75,0 -43.664,-7.71 -61.133,-8.79 -9.816,-1.11 -15.265,-3.32 -17.472,-8.88 -14.207,-46.35 -30.547,-88.34 -48.028,-129.24 C 274.223,948.266 157.367,692.016 131.215,633.5 86.4492,532.949 62.4453,482.172 23.1016,473.32 c -10.9102,-2.183 -10.9102,-3.3 -10.9102,-19.843 0,-9.961 1.1055,-14.391 13.125,-14.391 15.2656,0 43.6719,2.184 99.3476,2.184 46.914,0 96.063,-2.184 113.524,-2.184 12.023,0 12.023,5.547 12.023,14.391 0,16.543 0,19.843 -10.91,20.957 -32.754,2.226 -77.539,4.414 -77.539,41.957 0,21.113 16.672,68.414 40.449,132.437 H 492.25 c 20,-57.89 42.91,-126.734 42.91,-137.984 0,-28.672 -28.387,-34.184 -55.672,-36.41 -19.687,-2.207 -21.867,-2.207 -21.867,-20.957 0,-9.961 1.113,-14.391 15.293,-14.391 14.199,0 40.402,2.184 132.102,2.184 17.461,0 102.656,-2.184 121.172,-2.184 9.871,0 10.937,3.355 10.937,17.676 0,13.258 -1.066,14.375 -7.687,16.558" /><path
             id="path86"
             style="fill:#666;fill-opacity:1;fill-rule:nonzero;stroke:none"
             d="m 1483.17,354.492 c 0,0 151.87,108.574 501.94,108.574 350.07,0 506.01,-111.543 506.01,-111.543 0,0 -8.92,-11.597 -21.11,-13.085 -12.19,-1.485 -19.03,3.566 -20.52,4.453 -1.48,0.902 -18.43,12.199 -23.48,15.468 -5.06,3.274 -12.18,8.032 -22.89,8.321 -10.72,0.304 -12.8,-2.379 -16.96,-4.754 -4.16,-2.371 -16.06,-9.207 -24.38,-11.883 -8.32,-2.68 -16.06,-2.094 -23.49,-0.609 -7.43,1.488 -16.95,5.957 -27.95,12.199 -10.99,6.238 -22.01,12.785 -39.55,22.297 -17.54,9.508 -20.8,11.597 -25.26,7.136 -4.47,-4.464 -5.65,-10.996 -13.98,-17.539 -8.33,-6.543 -14.57,-9.519 -23.79,-10.715 -9.22,-1.179 -17.54,-0.585 -35.38,-6.835 -17.84,-6.239 -24.37,-11.582 -31.51,-15.75 -7.14,-4.172 -14.58,-8.028 -28.25,-6.243 -13.67,1.782 -18.15,6.235 -27.95,12.778 -9.81,6.543 -17.54,12.5 -30.32,12.195 -12.79,-0.305 -21.11,-5.352 -32.41,-14.269 -11.3,-8.922 -18.44,-12.196 -24.09,-14.278 -5.64,-2.078 -19.32,-2.676 -26.76,-0.293 -7.43,2.387 -33.31,19.317 -43.41,22.297 -10.11,2.977 -27.05,2.977 -34.49,-1.785 -7.44,-4.746 -23.78,-16.059 -30.03,-19.32 -6.25,-3.282 -22.9,-7.735 -35.98,2.074 -13.08,9.82 -21.7,21.109 -33,27.945 -11.29,6.848 -19.32,7.442 -25.57,6.848 -6.24,-0.598 -16.34,-3.274 -24.38,-6.242 -8.03,-2.977 -24.38,-0.008 -34.49,4.457 -10.11,4.461 -15.16,17.246 -35.08,17.839 -19.92,0.594 -28.55,-11.589 -33.61,-14.875 -5.05,-3.257 -21.1,-10.703 -34.48,-10.703 -13.38,0 -17.25,3.868 -32.71,2.676 -15.46,-1.187 -25.27,-4.156 -36.57,-10.398 -11.3,-6.242 -24.68,-7.735 -37.76,-4.168 l -16.36,7.73" /><path
             id="path88"
             style="fill:#666;fill-opacity:1;fill-rule:nonzero;stroke:none"
             d="m 1400.77,266.23 c -2.47,-4.96 -5.48,-16.621 -6.72,-21.558 h 508.91 l 43.28,21.558 h -545.47" /><path
             id="path90"
             style="fill:#666;fill-opacity:1;fill-rule:nonzero;stroke:none"
             d="m 2569.09,266.23 c 2.48,-4.96 5.49,-16.621 6.72,-21.558 h -512.17 l -42.24,21.558 h 547.69" /><path
             id="path92"
             style="fill:#666;fill-opacity:1;fill-rule:nonzero;stroke:none"
             d="m 1393.27,229.516 c -0.15,-17.192 10.16,-40.004 18.13,-49.536 h 363.98 l 97.34,49.375 -479.45,0.161" /><path
             id="path94"
             style="fill:#666;fill-opacity:1;fill-rule:nonzero;stroke:none"
             d="m 2576.16,229.516 c 0.16,-17.192 -10.15,-40.004 -18.12,-49.536 h -367.27 l -96.87,49.375 482.26,0.161" /><path
             id="path96"
             style="fill:#666;fill-opacity:1;fill-rule:nonzero;stroke:none"
             d="m 1985.1,266.586 c 0,0 -340.51,-196.586 -349.16,-202.0977 -8.65,-5.5 -11.79,-14.9571 4.72,-22.0274 C 1657.18,35.3906 1792.43,0 1983.53,0 c 191.09,0 322.45,29.7891 338.96,34.4883 16.51,4.7305 16.58,18.3437 4.69,26.0625 0,0 -8.6,6.4375 -22.97,6.5976 -14.38,0.1602 -501.41,1.4102 -501.41,1.4102 0,0 362.31,19.7422 408.13,29.8398 9.22,2.0316 12.5,12.8126 0.15,18.1326 -12.34,5.309 -30.31,8.899 -43.28,9.68 -12.97,0.777 -302.97,6.57 -302.97,6.57 0,0 210.17,9.309 251.41,19.528 9.06,2.242 14.69,5.211 14.1,9.961 -0.58,4.742 -4.75,7.421 -18.69,9.8 -13.94,2.371 -180.09,10.692 -180.09,10.692 l 166.45,15.718 -112.91,68.106" /><path
             id="path98"
             style="fill:#666;fill-opacity:1;fill-rule:nonzero;stroke:none"
             d="M 1404.05,338.242 H 11.8633 v 14.555 H 1417.8 c 0,0 -11.72,-12.074 -13.75,-14.555" /><path
             id="path100"
             style="fill:#666;fill-opacity:1;fill-rule:nonzero;stroke:none"
             d="m 2563.1,338.242 h 1368.59 v 14.555 H 2549.35 c 0,0 11.71,-12.074 13.75,-14.555" /><path
             id="path102"
             style="fill:#666;fill-opacity:1;fill-rule:nonzero;stroke:none"
             d="m 2190.54,498.715 c -5.19,-3.379 -10.58,-6.203 -16.07,-8.781 -44.72,5.711 -90.42,9.343 -135.82,10.949 -4.56,20.133 -5.22,93.152 -5.22,114.785 0,34.605 0,178.555 2.06,200 2.78,22.832 6.92,35.293 57.46,35.293 61.58,0 92,-15.238 111.43,-29.082 55.34,-40.805 61.59,-117.617 61.59,-152.91 0,-78.891 -23.56,-137.035 -75.43,-170.254 z m 418.14,-272.5 c 0,129.453 -152.78,210.308 -343.08,248.805 47.08,26.582 105.52,82.792 105.52,198.789 0,141.156 -94.76,210.371 -241.5,210.371 -11.72,0 -47.08,-0.68 -85.13,-1.383 -37.37,-0.727 -78.2,-1.406 -100.33,-1.406 -19.38,0 -32.54,0.679 -41.53,1.382 -9.69,0.727 -15.22,1.407 -20.05,1.407 -6.26,0 -6.26,-6.914 -6.26,-15.235 0,-12.461 0,-13.828 9,-14.511 32.54,-2.774 44.97,-4.161 48.44,-35.293 2.07,-17.325 2.78,-31.168 2.78,-97.618 0,-55.347 0,-137.675 -2.78,-190.269 -0.47,-12.699 -1.67,-22.512 -3.57,-30.332 -70.98,-2.309 -140.1,-9.106 -204.32,-20.449 -9.64,6.406 -20.45,15.488 -32.46,28.535 -26.3,28.379 -68.51,95.484 -93.41,139.82 18.7,6.895 89.95,32.5 89.95,120.41 0,65.024 -48.42,116.235 -144.61,116.235 -25.63,0 -86.5,-5.532 -158.46,-4.844 l -68.55,0.68 c -7.62,0 -13.85,0 -13.85,-13.141 0,-12.445 0,-13.828 9.02,-14.555 29.74,-2.754 38.75,-3.433 44.97,-21.425 5.54,-17.301 5.54,-85.118 5.54,-110.758 0,-54.629 0,-137.012 -2.77,-191 -0.68,-29.024 -2.07,-57.379 -40.84,-62.262 -15.92,-1.391 -17.3,-4.145 -17.3,-13.828 0,-6.914 0,-14.516 5.55,-14.516 11.75,0 55.36,0.649 99.66,0.649 23.52,0 98.96,-0.649 107.94,-0.649 6.93,0 6.93,4.809 6.93,12.422 0,11.059 -1.39,15.234 -10.36,15.234 -50.57,0 -54.69,8.325 -54.69,81.661 0,24.921 0,42.914 -0.71,80.957 l 0.71,33.925 0.71,166.094 c 0.66,17.309 1.38,22.133 26.98,22.133 33.22,0 98.93,0 98.93,-99.652 0,-68.575 -29.54,-85.157 -64.2,-89.215 -3.1,0.172 -6.94,1.289 -9.18,3.867 -6.46,6.875 -10.48,10.895 -16.16,10.895 -6.87,0 -18.13,-8.868 -18.13,-17.77 0,-9.707 12.89,-16.977 29.46,-16.977 0,0 53.33,-104.628 84.46,-144.785 6.1,-8.125 18.75,-24.746 38.98,-39.59 -159.28,-43.855 -270.16,-121.406 -270.16,-232.808 0,-106.953 154.81,-178.1838 154.81,-178.1838 l 230.06,116.5388 -325.41,-0.41 c 15.1,-24.898 93.88,-74.2811 120.44,-84.6912 l -23.33,-12.9102 c 0,0 -140.7,63.9294 -140.7,159.6564 0,102.168 115.11,177.359 274.95,220.078 8.03,2.145 16.17,4.219 24.41,6.187 0.01,0 0.02,0 0.03,0.012 8.22,1.973 16.54,3.867 24.96,5.676 0.04,0.008 0.08,0.016 0.12,0.016 8.4,1.82 16.89,3.539 25.47,5.175 0.06,0 0.11,0.024 0.17,0.032 8.58,1.629 17.25,3.195 26,4.66 55.15,9.273 113.32,15.23 172.37,17.652 9.84,0.41 19.71,0.715 29.59,0.918 0.22,0.012 0.45,0.02 0.68,0.02 10.09,0.214 20.19,0.332 30.3,0.332 10.33,0 20.72,-0.133 31.14,-0.371 0.72,-0.016 1.44,-0.047 2.17,-0.067 10.08,-0.242 20.2,-0.597 30.35,-1.047 30.44,-1.347 61.02,-3.648 91.36,-6.933 17.3,-1.883 34.52,-4.082 51.56,-6.602 0,0 0.01,0 0.02,0 17.05,-2.519 33.93,-5.351 50.57,-8.492 191.52,-36.262 349.67,-114.731 349.67,-237.246 0,-102.055 -146.98,-163.2658 -146.98,-163.2658 l -24.21,14.0625 c 38.91,12.4571 118.5,66.7383 130.74,88.3793 L 2220.93,164.98 2444.6,43.75 c 174.7,82.461 164.08,182.465 164.08,182.465" /></g></g></g></g></svg>